<svg width="109" height="51" viewBox="0 0 109 51" fill="none" xmlns="http://www.w3.org/2000/svg">
<path d="M7.24994 0.782227H101.972C105.854 0.782227 109 3.935 109 7.81V43.7544C109 47.6364 105.854 50.7822 101.972 50.7822H7.24994C3.368 50.7822 0.222168 47.6364 0.222168 43.7544V7.81C0.222168 3.935 3.37494 0.782227 7.24994 0.782227Z" fill="#0060A9"/>
<path d="M8.25076 49.2822C4.45215 49.2822 1.76465 46.6711 1.76465 42.9628V8.60167C1.76465 4.90028 4.45215 2.28223 8.25076 2.28223H100.973C104.772 2.28223 107.459 4.89334 107.459 8.60167V42.9628C107.459 46.6642 104.772 49.2822 100.973 49.2822H8.25076ZM99.9521 47.8586C103.66 47.8586 105.897 45.7544 105.897 42.2197V9.35167C105.897 5.81 103.66 3.71278 99.9521 3.71278H9.27854C5.5702 3.71278 3.33409 5.81695 3.33409 9.35167V42.2128C3.33409 45.7475 5.5702 47.8517 9.27854 47.8517H99.9452L99.9521 47.8586Z" fill="#FFF200"/>
<path d="M92.5967 35.7683C88.0411 35.7683 83.7356 33.435 83.7356 28.3308C83.7356 23.2266 88.0411 20.8933 92.5967 20.8933C97.1523 20.8933 101.458 23.2336 101.458 28.3308C101.458 33.428 97.1523 35.7683 92.5967 35.7683ZM15.687 31.4697H26.2703L28.2009 35.4003H34.437L24.5898 16.1433H17.8051L8.43701 35.4003H13.9023L15.694 31.4697H15.687ZM40.0481 16.3308H35.2564V35.3933H40.0481V16.3308ZM57.2773 32.6364V24.9905C56.3467 21.3447 51.9509 21.0947 49.4578 21.0947C45.8398 21.0947 42.0898 21.7058 41.5551 26.0322H46.2287C46.3606 25.2058 46.562 23.8725 48.8884 23.8725C50.0828 23.8725 52.1384 23.9558 52.1384 25.5183C52.1384 26.3169 51.2425 26.553 50.5134 26.6364L46.1384 27.1433C43.187 27.4905 40.9926 28.8933 40.9926 31.6572C40.9926 34.5808 43.7148 35.7753 46.3675 35.7753C49.5203 35.7753 51.2078 34.6086 52.2703 33.7336C52.3675 34.5322 52.437 34.7405 52.7009 35.4072H57.3189L57.2703 32.6433L57.2773 32.6364ZM83.0481 25.9211C83.0481 22.8169 79.8189 21.5878 76.4231 21.5878C73.6453 21.5878 72.3745 23.1572 71.7842 23.8447C70.6106 22.3308 69.4648 21.5878 66.9509 21.5878C63.8814 21.5878 63.7773 22.9072 63.187 23.8378H63.1245V21.7683H58.3606V35.4072H63.3259V27.2961C63.3259 25.7544 64.0134 24.8864 66.1662 24.928C68.2564 24.9697 68.3259 26.2128 68.3259 27.4072V35.4141H73.4856V27.435C73.4856 25.7614 73.9092 24.8794 76.1939 24.928C77.9231 24.9697 78.6037 25.6503 78.4787 27.3239V35.4141H83.0481V25.935V25.9211ZM92.5967 24.0322C89.1523 24.0322 88.5203 26.5322 88.5203 28.3308C88.5203 30.1294 89.1592 32.6294 92.5967 32.6294C96.0342 32.6294 96.6731 30.1364 96.6731 28.3308C96.6731 26.5253 96.0342 24.0322 92.5967 24.0322ZM20.8884 20.2405L24.4717 27.7822H17.5203L20.8884 20.2405V20.2405ZM51.9509 30.3239C51.9509 32.0461 49.8606 33.1086 47.805 33.1086C46.9092 33.1086 45.6453 32.7128 45.6453 31.4072C45.6453 29.8655 47.0759 29.5183 48.7981 29.2822C50.7217 29.0461 51.4856 28.803 51.9509 28.5114V30.3169V30.3239Z" fill="#FFF200"/>
<path d="M101.617 19.8725C101.617 19.6503 101.381 19.6294 101.208 19.6294H100.881V20.1503H101.291C101.492 20.1503 101.617 20.1086 101.617 19.8725ZM102.11 19.9211C102.11 20.3169 101.874 20.4558 101.59 20.4836L102.145 21.4141H101.596L101.096 20.5183H100.881V21.4141H100.423V19.2683H101.221C101.777 19.2683 102.096 19.428 102.096 19.9211H102.11Z" fill="#FFF200"/>
<path d="M103.215 20.3517C103.215 21.6086 102.277 22.3447 101.215 22.3447C100.152 22.3447 99.208 21.6086 99.208 20.3517C99.208 19.0947 100.152 18.3517 101.215 18.3517C102.277 18.3517 103.215 19.0878 103.215 20.3517ZM101.215 21.8864C101.993 21.8864 102.639 21.2614 102.639 20.3517C102.639 19.442 101.986 18.817 101.215 18.817C100.444 18.817 99.7844 19.435 99.7844 20.3517C99.7844 21.2684 100.43 21.8864 101.215 21.8795V21.8864Z" fill="#FFF200"/>
</svg>
