<svg width="250" height="51" viewBox="0 0 250 51" fill="none" xmlns="http://www.w3.org/2000/svg">
<path d="M250 50.7822V0.782227H50.0139V50.7822H250Z" fill="black"/>
<path d="M152.655 35.8513C149.384 35.8513 147.349 34.7332 145.467 33.2679V43.3999H139.793V17.7818H145.467V19.6846C147.391 18.1846 150.03 17.3235 152.655 17.3235C156.731 17.3235 159.988 18.4485 162.363 20.4832C164.287 22.1429 165.266 24.2193 165.266 26.5665C165.266 32.0388 160.217 35.8513 152.648 35.8513H152.655ZM157.641 22.6985C156.356 21.504 154.675 20.8929 152.349 20.8929C148.106 20.8929 145.474 23.1221 145.474 26.3999C145.474 27.8652 146.057 29.1777 147.092 30.136C148.384 31.3304 150.023 31.9485 152.349 31.9485C154.675 31.9485 156.356 31.3304 157.641 30.136C158.682 29.1777 159.224 27.8582 159.224 26.3999C159.224 24.9693 158.682 23.6638 157.641 22.6985V22.6985Z" fill="white"/>
<path d="M189.533 15.0116C188.311 15.0116 187.186 14.6783 186.45 14.0602C185.839 13.6158 185.512 13.0325 185.512 12.4422C185.512 11.8519 185.832 11.2755 186.45 10.7964C187.193 10.213 188.311 9.84497 189.484 9.84497C190.658 9.84497 191.811 10.22 192.568 10.7964C193.172 11.2755 193.498 11.8589 193.498 12.4422C193.498 13.8727 191.727 15.0116 189.547 15.0116M192.609 35.5047H186.387V17.7825H192.609V35.5047Z" fill="white"/>
<path d="M205.901 36.1161C201.005 36.1161 198.192 35.1786 195.672 32.9355L195.331 32.6161L195.769 32.38L199.602 30.3383L199.838 30.1855L200.081 30.38C201.679 31.3939 203.137 32.3383 205.901 32.3383C207.887 32.3383 209.317 31.9078 210.095 31.2758C210.394 31.0397 210.54 30.8036 210.54 30.4911C210.54 29.0397 207.644 28.6022 205.56 28.2897L204.831 28.2064C200.519 27.5814 196.04 26.5189 196.04 22.9008C196.04 21.6508 196.623 20.5466 197.734 19.6022C199.574 18.1508 203.185 17.2411 206.866 17.2411C211.081 17.2411 214.185 18.3453 215.929 20.2272L216.227 20.5466L211.908 22.6647L211.623 22.8175L211.38 22.63C210.019 21.5675 208.665 21.0119 206.574 21.0119C204.595 21.0119 202.922 21.5605 202.922 22.5883C202.922 24.123 205.901 24.5119 208.081 24.7897C208.422 24.8661 208.762 24.8661 209.005 24.9494C213.22 25.5744 217.408 26.7203 217.408 30.3383C217.408 34.5883 211.088 36.1161 205.901 36.1161" fill="white"/>
<path d="M66.7933 35.3513V25.0735C66.7933 23.8374 66.3766 22.9138 65.5572 22.2124C64.4113 21.254 62.7169 21.0596 61.4808 21.0596C57.3697 21.0596 56.1822 22.9832 56.1822 26.3374V35.3582H50.0085V17.7818H56.1822V19.7818C57.821 18.2818 60.1197 17.3235 63.453 17.3235C66.5572 17.3235 69.2169 18.129 70.8558 19.5179C72.2724 20.7124 72.9599 22.254 72.9599 24.1429V35.3582H66.7863" fill="white"/>
<path d="M74.5453 21.3312V17.6784H78.6078V12.9076H84.8022V17.6784H91.3092V21.3312H84.8022V29.4145C84.8022 31.1368 85.5383 32.2062 88.3022 32.2062C89.3994 32.2062 90.5175 32.0604 91.3022 31.6715V35.2895C89.9967 35.7201 88.1981 35.8659 86.7328 35.8659C80.0939 35.8659 78.6008 33.8243 78.6008 29.7756V21.3312H74.5383H74.5453Z" fill="white"/>
<path d="M112.241 30.3448C110.297 31.5045 108.991 31.9629 106.463 32.0184C103.519 32.0879 100.852 31.2407 99.4287 29.8518C98.8801 29.3101 98.5467 28.692 98.4148 28.074H117.623C118.63 28.0532 119.151 27.6434 119.151 26.3934C119.109 24.2823 118.158 22.074 116.498 20.449C114.297 18.2754 110.283 16.9559 105.866 16.9559C101.449 16.9559 97.3176 18.5045 94.8801 20.9073C93.2759 22.4976 92.4009 24.3934 92.4009 26.442C92.4009 28.4907 93.2759 30.5532 94.8801 32.1295C97.2689 34.4559 101.373 35.8726 106.026 35.8726C108.074 35.8726 110.595 35.6018 112.533 34.9212C113.408 34.6157 114.234 34.2407 115.026 33.7684C115.824 33.2962 116.561 32.7198 117.206 32.0532C117.609 31.6295 117.963 31.1643 118.234 30.6573C118.436 30.2268 117.713 30.3309 117.248 30.324H112.269L112.241 30.3379M112.373 24.6226H98.0675C98.5675 23.2684 101.415 20.7337 105.776 20.6712C110.165 20.6087 112.297 22.449 113.213 23.7754C113.616 24.4976 112.949 24.6157 112.373 24.6157V24.6226Z" fill="white"/>
<path d="M137.233 17.6439C137.233 17.6439 136.059 17.3939 134.906 17.3939C132.122 17.3939 129.288 19.1578 127.733 20.6161V17.8592H121.559V35.4286H127.733V26.6439C127.733 23.2134 129.976 21.5606 134.504 21.5606C135.094 21.5606 135.823 21.637 136.74 21.7828L137.233 21.9009V17.6509V17.6439Z" fill="white"/>
<path d="M183.695 17.6439C183.695 17.6439 182.528 17.3939 181.368 17.3939C178.584 17.3939 175.75 19.1578 174.195 20.6161V17.8592H168.021V35.4286H174.195V26.6439C174.195 23.2134 176.438 21.5606 180.966 21.5606C181.549 21.5606 182.285 21.637 183.202 21.7828L183.695 21.9009V17.6509V17.6439Z" fill="white"/>
<path d="M238.677 30.3448C236.732 31.5045 235.427 31.9629 232.906 32.0184C229.955 32.0879 227.295 31.2407 225.871 29.8518C225.323 29.3101 224.989 28.692 224.857 28.074H244.066C245.073 28.0532 245.594 27.6434 245.594 26.3934C245.559 24.2823 244.6 22.074 242.941 20.449C240.739 18.2754 236.725 16.9559 232.309 16.9559C227.892 16.9559 223.76 18.5045 221.323 20.9073C219.719 22.4976 218.844 24.3934 218.844 26.442C218.844 28.4907 219.719 30.5532 221.323 32.1295C223.712 34.4559 227.816 35.8726 232.469 35.8726C234.517 35.8726 237.038 35.6018 238.975 34.9212C239.85 34.6157 240.677 34.2407 241.475 33.7684C242.274 33.2962 243.01 32.7198 243.656 32.0532C244.059 31.6295 244.413 31.1643 244.684 30.6573C244.885 30.2268 244.156 30.3309 243.698 30.324H238.719L238.691 30.3379M238.823 24.6226H224.517C225.017 23.2684 227.857 20.7337 232.225 20.6712C236.614 20.6087 238.746 22.449 239.663 23.7754C240.066 24.4976 239.399 24.6157 238.823 24.6157V24.6226Z" fill="white"/>
<path d="M46.6863 24.1361C45.7002 19.2541 39.9849 14.3027 30.9641 14.3027H30.9571C22.9919 14.3027 17.2071 18.525 15.3391 22.8583C15.2974 22.9486 15.1516 23.3236 15.096 23.4902H0.0126953V27.9277C7.53353 27.9277 41.228 27.9277 42.228 27.9277C44.3113 27.9138 45.8044 27.8722 46.4502 27.0736C46.8947 26.5319 46.9641 25.6222 46.6794 24.1291L46.6863 24.1361ZM40.0058 23.1569C39.8669 23.4277 39.3738 23.4833 38.9155 23.4902H21.5335C21.6655 23.1708 21.8946 22.8583 21.8946 22.8583C23.5335 20.4555 27.3321 18.7541 31.096 18.7402C35.0266 18.7263 38.2141 20.0527 39.846 22.3791C40.0474 22.7402 40.103 22.9763 40.0127 23.1569H40.0058Z" fill="white"/>
<path d="M30.8651 32.5256C27.3374 32.5256 23.9346 31.0742 22.1707 28.9423H15.4485C17.2193 33.1923 22.5735 37.3173 30.9415 37.3034C39.5318 37.2895 42.9901 34.2895 45.2401 31.352C45.3512 31.1992 45.4137 31.102 45.4971 30.9562H37.6151C36.0596 32.2131 33.0874 32.5256 30.8721 32.5256H30.8651Z" fill="white"/>
<path d="M0.0126953 0.782227V23.4906H15.0891C15.1377 23.3239 15.2905 22.9489 15.3321 22.8586C17.2002 18.5253 22.9849 14.3031 30.9502 14.3031H30.9571C39.9849 14.3031 45.7002 19.2475 46.6794 24.1364C46.9641 25.6294 46.8946 26.5392 46.4502 27.0808C45.8044 27.8725 44.3113 27.9142 42.228 27.935C41.2349 27.935 8.18631 27.935 0.0126953 27.935V50.7822H50.0127V0.782227H0.0126953ZM45.2419 31.3517C42.9919 34.2892 39.5335 37.2892 30.9433 37.3031C22.5752 37.31 17.221 33.185 15.4502 28.9419H22.1724C23.9363 31.0739 27.3391 32.5253 30.8669 32.5253C33.0821 32.5253 36.0544 32.2197 37.6099 30.9558H45.4919C45.4085 31.1017 45.346 31.2058 45.2349 31.3517H45.2419Z" fill="#009757"/>
<path d="M40.0104 23.1569C40.1007 22.9833 40.0521 22.7402 39.8438 22.3791C38.2118 20.0527 35.0243 18.7263 31.0938 18.7402C27.3299 18.7472 23.5313 20.4486 21.8924 22.8583C21.8924 22.8583 21.6632 23.1708 21.5312 23.4902H38.9132C39.3715 23.4763 39.8646 23.4277 40.0035 23.1569H40.0104Z" fill="#009757"/>
<path d="M43.8321 25.7198C44.1516 25.4837 44.2627 25.1712 44.2488 24.6225C44.1655 22.2962 40.1169 16.0531 30.9433 16.0531C21.7696 16.0531 18.8807 21.185 18.103 22.7614C18.103 22.7614 17.9085 23.1087 17.7557 23.4906H18.7835C18.8738 23.2684 18.9571 23.0948 19.0891 22.8587C19.8113 21.5323 23.1169 16.9559 30.9433 16.9559C40.0683 16.9559 43.2766 23.1434 43.2766 24.4767C43.2766 24.692 43.2141 24.7892 43.1446 24.8517C42.8877 25.0948 42.5405 25.2128 40.2627 25.2128H0.0126953V26.1156H40.2627C43.2141 26.1156 43.5544 25.9212 43.8321 25.7128V25.7198Z" fill="#009757"/>
<path d="M42.4315 30.9211L42.3342 31.0461C38.7787 35.4767 31.362 35.3864 30.5217 35.3586C24.1676 35.2544 19.7995 32.0044 18.2717 28.9072H19.3134C20.7787 31.4628 24.4662 34.2961 30.5564 34.4489C30.8412 34.4628 37.5634 34.7336 41.2162 30.9142H42.4315V30.9211Z" fill="#009757"/>
<path d="M5.07281 45.768C5.44086 46.136 5.62836 46.5874 5.62836 47.1082C5.62836 47.6291 5.44086 48.0874 5.07281 48.4624C4.70475 48.8374 4.26031 49.018 3.73253 49.018C3.20475 49.018 2.76031 48.8305 2.39225 48.4624C2.0242 48.0874 1.84364 47.636 1.84364 47.1082C1.84364 46.5805 2.0242 46.136 2.39225 45.768C2.76031 45.393 3.2117 45.2124 3.73253 45.2124C4.25336 45.2124 4.70475 45.3999 5.07281 45.768ZM5.29503 45.5527C4.86447 45.1221 4.34364 44.9069 3.73253 44.9069C3.12142 44.9069 2.60753 45.1221 2.18392 45.5527C1.75336 45.9832 1.53809 46.5041 1.53809 47.1082C1.53809 47.7124 1.75336 48.2402 2.17697 48.6707C2.60753 49.1013 3.12142 49.3166 3.73253 49.3166C4.34364 49.3166 4.86447 49.1013 5.29503 48.6707C5.72559 48.2402 5.94086 47.7124 5.94086 47.1082C5.94086 46.5041 5.72559 45.9832 5.29503 45.5527V45.5527ZM4.05892 47.0041C3.96864 47.0388 3.8367 47.0596 3.65614 47.0596H3.2742V46.1846H3.63531C3.87142 46.1846 4.04503 46.2124 4.1492 46.2749C4.25336 46.3374 4.30892 46.4555 4.30892 46.6291C4.30892 46.8166 4.22559 46.9416 4.05892 47.011V47.0041ZM2.84364 48.3096H3.26725V47.3513H3.60059C3.82975 47.3513 3.98253 47.3791 4.07281 47.4277C4.22559 47.518 4.30197 47.7055 4.30197 47.9832V48.2541C4.30197 48.2541 4.31586 48.2749 4.31586 48.2819C4.31586 48.2888 4.31586 48.3027 4.31586 48.3096H4.7117L4.69781 48.2819C4.69781 48.2819 4.68392 48.2194 4.67697 48.1569C4.67697 48.0944 4.67697 48.0319 4.67697 47.9763V47.8027C4.67697 47.6777 4.63531 47.5527 4.54503 47.4277C4.45475 47.2957 4.31586 47.2194 4.12836 47.1916C4.28114 47.1638 4.39225 47.1291 4.48253 47.0735C4.64225 46.9694 4.71864 46.8096 4.71864 46.5944C4.71864 46.2888 4.59364 46.0874 4.34364 45.9832C4.20475 45.9277 3.98253 45.8999 3.68392 45.8999H2.8367V48.3166L2.84364 48.3096Z" fill="white"/>
<path d="M201.961 44.5736H196.871V43.1292H201.961V44.5736Z" fill="white"/>
<path d="M209.294 46.3929H209.231C208.53 47.1568 207.641 47.4901 206.321 47.4901C204.488 47.4901 202.717 46.7957 202.717 45.4554C202.717 43.254 206.203 43.0943 208.676 43.0943H209.294V42.9137C209.294 42.0804 208.377 41.6429 207.058 41.6429C206.023 41.6429 205.308 41.9276 204.648 42.3512L203.349 41.4624C204.44 40.6985 205.759 40.3721 207.328 40.3721C211.551 40.3721 211.551 42.4624 211.551 43.4207V47.2887H209.294V46.386V46.3929ZM209.148 44.2887H208.634C207.273 44.2887 205.19 44.3582 205.19 45.3374C205.19 45.9554 206.113 46.2262 206.919 46.2262C208.606 46.2262 209.148 45.6221 209.148 44.6707V44.2887V44.2887Z" fill="white"/>
<path d="M234.926 46.3929H234.863C234.162 47.1568 233.273 47.4901 231.954 47.4901C230.12 47.4901 228.35 46.7957 228.35 45.4554C228.35 43.254 231.836 43.0943 234.308 43.0943H234.926V42.9137C234.926 42.0804 234.009 41.6429 232.697 41.6429C231.669 41.6429 230.947 41.9276 230.287 42.3512L228.989 41.4624C230.079 40.6985 231.398 40.3721 232.968 40.3721C237.19 40.3721 237.19 42.4624 237.19 43.4207V47.2887H234.933V46.386L234.926 46.3929ZM234.78 44.2887H234.266C232.905 44.2887 230.822 44.3582 230.822 45.3374C230.822 45.9554 231.745 46.2262 232.551 46.2262C234.245 46.2262 234.78 45.6221 234.78 44.6707V44.2887V44.2887Z" fill="white"/>
<path d="M217.798 44.5736H212.708V43.1292H217.798V44.5736Z" fill="white"/>
<path d="M226.049 42.581C225.472 42.1713 224.833 41.9005 224.174 41.9005C222.361 41.9005 221.271 42.8727 221.271 43.9352C221.271 44.9977 222.361 45.9699 224.174 45.9699C224.938 45.9699 225.632 45.7408 226.09 45.338L227.743 46.5533C226.729 47.2408 225.042 47.4977 224.181 47.4977C221.195 47.4977 218.806 46.0741 218.806 43.9422C218.806 41.8102 221.195 40.3866 224.181 40.3866C225.438 40.3866 226.82 40.6991 227.764 41.4213L226.056 42.5949L226.049 42.581Z" fill="white"/>
<path d="M186.412 47.2961V43.3031C186.412 42.8239 186.252 42.4698 185.94 42.192C185.495 41.817 184.836 41.7475 184.356 41.7475C182.766 41.7475 182.301 42.4975 182.301 43.7961V47.2961H179.905V40.4767H182.301V41.2475C182.94 40.6642 183.829 40.2961 185.12 40.2961C186.329 40.2961 187.356 40.6086 187.995 41.1434C188.544 41.6086 188.815 42.2059 188.815 42.935V47.2892H186.419" fill="white"/>
<path d="M189.432 41.8584V40.4417H191.439V38.5945H193.842V40.4417H196.369V41.8584H193.842V44.9973C193.842 45.6639 194.126 46.0806 195.203 46.0806C195.626 46.0806 196.064 46.025 196.369 45.8723V47.275C195.862 47.4417 195.161 47.4973 194.592 47.4973C192.015 47.4973 191.439 46.7056 191.439 45.1361V41.8584H189.432V41.8584Z" fill="white"/>
<path d="M168.079 40.4002C168.079 40.4002 167.628 40.303 167.176 40.303C166.1 40.303 164.996 40.9835 164.391 41.553V40.4835H161.996V47.303H164.391V43.8933C164.391 42.5599 165.26 41.921 167.016 41.921C167.246 41.921 167.53 41.9558 167.885 42.0044L168.079 42.053V40.4002V40.4002Z" fill="white"/>
<path d="M244.909 40.4002C244.909 40.4002 244.451 40.303 244.006 40.303C242.93 40.303 241.826 40.9835 241.222 41.553V40.4835H238.826V47.303H241.222V43.8933C241.222 42.5599 242.09 41.921 243.847 41.921C244.076 41.921 244.36 41.9558 244.715 42.0044L244.909 42.053V40.4002V40.4002Z" fill="white"/>
<path d="M176.129 45.3797C175.386 45.8241 174.893 45.9978 173.927 46.0186C172.802 46.0464 171.788 45.72 171.247 45.1922C171.038 44.9839 170.913 44.7478 170.865 44.5116H178.177C178.559 44.5047 178.761 44.345 178.761 43.8727C178.747 43.0672 178.379 42.2269 177.747 41.6089C176.906 40.7825 175.379 40.2825 173.698 40.2825C172.018 40.2825 170.441 40.8727 169.511 41.7894C168.899 42.3936 168.566 43.1158 168.566 43.9005C168.566 44.6852 168.899 45.463 169.511 46.0672C170.42 46.9561 171.983 47.4908 173.754 47.4908C174.531 47.4908 175.497 47.3866 176.233 47.1297C176.566 47.0116 176.879 46.8728 177.184 46.6922C177.49 46.5116 177.768 46.2964 178.011 46.0394C178.163 45.8797 178.295 45.7061 178.399 45.5047C178.476 45.345 178.198 45.3797 178.024 45.3797H176.115M176.163 43.2061H170.719C170.913 42.6922 171.99 41.7269 173.656 41.7061C175.33 41.6852 176.143 42.3866 176.49 42.8866C176.643 43.1644 176.393 43.2061 176.17 43.2061H176.163Z" fill="white"/>
</svg>
