<svg width="179" height="51" viewBox="0 0 179 51" fill="none" xmlns="http://www.w3.org/2000/svg">
<path d="M179 0.782227H0.354004V50.7822H179V0.782227Z" fill="#00703C"/>
<path fill-rule="evenodd" clip-rule="evenodd" d="M107.653 14.3517L106.729 18.5947H101.521L102.438 14.3517H107.646H107.653ZM164.472 37.7058C163.396 37.7058 160.299 37.7336 159.403 37.7267L164.535 14.1017C166.222 14.1017 167.958 14.1017 169.646 14.1017L164.472 37.7058ZM106.417 20.1017C106.417 20.1017 103.889 31.8864 102.618 37.7058H97.4584C98.5973 31.9003 101.25 20.1017 101.25 20.1017H106.424H106.417ZM118.09 23.8864C119.674 24.6711 119.007 27.5878 118.549 29.3308C118.118 31.2267 117.243 33.9558 114.938 34.1572C113.667 34.2267 112.028 34.4072 111.361 33.0183C110.646 30.7683 111.722 27.2892 112.701 25.3794C113.681 23.4697 116.569 23.2405 118.09 23.8864ZM119.146 19.7683C114.84 19.3239 110.285 20.1989 108.035 24.2961C106.271 27.5808 104.875 31.8725 106.625 35.5947C107.417 37.0461 108.931 37.6156 110.382 37.935C114.118 38.5947 118.389 38.3169 121.132 34.9767C123.521 31.6989 125.097 26.7961 123.938 23.053C123.271 20.9072 121.083 20.0183 119.146 19.7614V19.7683ZM71.7917 14.0947L66.6598 37.7197L61.2223 37.7336L55.4306 23.3378L52.2917 37.7336H46.8264L51.9653 14.0878H57.6736L63.125 28.3517L66.2709 14.1017H71.7986L71.7917 14.0947ZM81 29.4003C79.1042 30.1155 75.7014 29.4905 74.5695 31.7544C74.3056 32.3586 74.2848 33.1642 74.75 33.6989C75.7292 34.7197 77.3264 34.3169 78.5417 33.6642C80.0486 32.8447 80.7917 31.1433 80.9931 29.5044V29.4003H81ZM76.1667 37.6781C69.9098 38.6086 69.5139 35.185 69.4445 33.9281C69.382 32.6711 69.882 30.0808 72.1181 28.4767C74.3611 26.8725 77.8889 27.428 80.8334 26.6225C81.6667 26.4211 82.1875 24.8655 81.507 24.0669C80.8611 23.3169 78.6459 23.3655 77.7709 23.8586C77.1042 24.2267 76.875 24.9836 76.5625 25.6711H71.882C72.1806 23.5392 73.3334 21.5392 75.5556 20.6017C77.7778 19.6711 81.9792 19.6364 83.8542 20.1989C85.7292 20.7614 86.3056 21.4628 86.6667 22.3725C87.0486 23.3308 86.8403 24.7475 86.6042 25.7475L85 33.3933C85 33.3933 85.0556 33.8447 86.2848 33.7892C86.0764 34.6503 85.6806 36.4836 85.4931 37.2822C83.7709 37.7197 80.9931 38.3933 80.1667 36.2128C80.007 35.7961 80 35.8794 80 35.8794C80 35.8794 78.8334 37.2683 76.1667 37.6642V37.6781ZM153.375 29.4003C151.472 30.1155 148.076 29.4905 146.944 31.7544C146.681 32.3586 146.66 33.1642 147.125 33.6989C148.104 34.7197 149.701 34.3169 150.917 33.6642C152.424 32.8447 153.174 31.1433 153.368 29.5044L153.382 29.4003H153.375ZM148.542 37.6781C142.285 38.6086 141.882 35.185 141.819 33.9281C141.75 32.6711 142.257 30.0808 144.493 28.4767C146.729 26.8725 150.264 27.428 153.208 26.6225C154.042 26.4211 154.563 24.8655 153.882 24.0669C153.236 23.3169 151.014 23.3655 150.146 23.8586C149.486 24.2267 149.25 24.9836 148.938 25.6711H144.257C144.556 23.5392 145.708 21.5392 147.924 20.6017C150.146 19.6711 154.347 19.6364 156.222 20.1989C158.097 20.7614 158.674 21.4628 159.035 22.3725C159.417 23.3308 159.208 24.7475 158.972 25.7475L157.368 33.3933C157.368 33.3933 157.424 33.8447 158.66 33.7892C158.451 34.6503 158.056 36.4836 157.868 37.2822C156.146 37.7197 153.368 38.3933 152.542 36.2128C152.382 35.7961 152.375 35.8794 152.375 35.8794C152.375 35.8794 151.208 37.2683 148.542 37.6642V37.6781ZM94.0834 33.935C93.5764 33.935 93.4792 33.6156 93.5695 33.2128L95.6389 23.678H98.257L99.0278 20.1017H96.375L97.4167 15.1503H92.0417L91.0139 20.1086H89.0139L88.2639 23.6711L90.2292 23.6572L88.1181 33.2336C87.9306 34.2336 87.757 35.3586 88.1181 36.3586C88.4445 37.185 88.9445 37.7197 90.0834 37.7544H95.7084L96.5973 33.9281H94.0903L94.0834 33.935ZM141.549 21.1225C140.951 20.303 140.167 20.0461 139.576 19.8725C138.924 19.678 134.229 19.0044 132.34 21.928C132.375 21.1294 132.326 20.5392 132.354 20.0669C131.146 20.1086 128.09 20.0669 127.486 20.0878C127.326 20.8517 123.861 36.8933 123.688 37.685H128.91L131.444 25.9072C131.444 25.9072 131.847 23.8169 134.229 23.4975C134.229 23.4975 134.576 23.4211 135.097 23.4697C135.924 23.5392 136.917 24.0183 136.632 25.4697L134.139 37.685H139.382L141.833 25.4697C141.833 25.4697 142.597 22.3308 141.556 21.1225H141.549Z" fill="white"/>
<path fill-rule="evenodd" clip-rule="evenodd" d="M15.0273 41.2822C13.9579 41.1919 11.0759 42.1642 9.97872 39.6919C9.43706 38.1017 9.88844 36.7822 10.8746 35.9836C12.0412 35.0044 13.7357 34.56 16.194 35.5392L15.0343 41.2822H15.0273ZM12.3468 27.7545C12.3537 27.8308 16.4509 23.4836 27.7704 32.6433C36.5204 39.7128 41.7496 36.1017 41.7218 36.0739L40.7496 40.4281C40.7496 40.4281 36.5551 44.8447 25.3676 35.9489C16.1107 28.5947 11.3884 31.9836 11.3884 31.9836C11.3884 31.9836 12.3259 27.56 12.3398 27.7545H12.3468ZM14.1801 19.4558C14.1801 19.5253 18.2843 15.185 29.6037 24.3447C38.3468 31.4211 43.5759 27.8031 43.5551 27.7753L42.5898 32.1295C42.5898 32.1295 38.3954 36.5461 27.2079 27.6572C17.9509 20.2961 13.2218 23.692 13.2218 23.692C13.2218 23.692 14.1662 19.2614 14.1801 19.4628V19.4558ZM15.9787 11.2197C15.9787 11.2197 16.944 10.2545 19.2218 10.2545H19.2357C21.6593 10.2545 25.5759 11.3933 31.4093 16.1086C40.1523 23.185 45.3815 19.567 45.3607 19.5392L44.3884 23.8864C44.3884 23.8864 40.194 28.3031 29.0134 19.4142C19.7565 12.06 15.0273 15.4489 15.0273 15.4489C15.0273 15.4489 15.9648 11.0183 15.9787 11.2197V11.2197ZM41.5898 10.942C42.6662 11.0322 45.5412 10.0531 46.6454 12.5322C47.1801 14.1225 46.7287 15.442 45.7496 16.2406C44.5759 17.2128 42.8815 17.6572 40.4301 16.685L41.5898 10.935V10.942Z" fill="#B4D88B"/>
<path d="M169.632 35.5114C169.876 35.5184 170.056 35.4628 170.056 35.1781C170.056 34.8934 169.737 34.9003 169.521 34.9003H169.021V35.5045H169.632V35.5114ZM170.417 36.7823H169.876L169.389 35.8448H169.014V36.7823H168.549V34.567H169.626C170.202 34.567 170.487 34.7198 170.487 35.2475C170.487 35.6573 170.264 35.8239 169.876 35.8448L170.417 36.7823V36.7823ZM170.903 35.6642C170.903 34.7475 170.271 34.1017 169.396 34.1017C168.521 34.1017 167.889 34.7545 167.889 35.6642C167.889 36.5739 168.501 37.2267 169.396 37.2267C170.292 37.2267 170.903 36.5809 170.903 35.6642ZM167.341 35.6642C167.341 34.5323 168.257 33.6086 169.389 33.6086C170.521 33.6086 171.445 34.5323 171.445 35.6642C171.445 36.7961 170.528 37.7198 169.389 37.7198C168.251 37.7198 167.341 36.8031 167.341 35.6642Z" fill="white"/>
</svg>
